<?xml version="1.0" encoding="UTF-8" standalone="no"?>
<svg
   xmlns:dc="http://purl.org/dc/elements/1.1/"
   xmlns:cc="http://creativecommons.org/ns#"
   xmlns:rdf="http://www.w3.org/1999/02/22-rdf-syntax-ns#"
   xmlns:svg="http://www.w3.org/2000/svg"
   xmlns="http://www.w3.org/2000/svg"
   viewBox="-11.5 -10.23174 230 230"
   version="1.1"
   id="svg5"
   width="230"
   height="230">
  <metadata
     id="-fancyreact-logo-metadata-">
    <rdf:RDF>
      <cc:Work
         rdf:about="">
        <dc:format>image/svg+xml</dc:format>
        <dc:type
           rdf:resource="http://purl.org/dc/dcmitype/StillImage" />
        <dc:title></dc:title>
      </cc:Work>
    </rdf:RDF>
  </metadata>
  <defs
     id="defs9" />
  <path
     id="flowRoot812"
     style="font-style:normal;font-variant:normal;font-weight:normal;font-stretch:normal;font-size:40px;line-height:1.25;font-family:'Tragic Marker';-inkscape-font-specification:'Tragic Marker';letter-spacing:0px;word-spacing:0px;fill:#61dafb;fill-opacity:1;stroke:none;stroke-width:4.85198689"
     d="M 103.34529,-10.225562 C 94.00066,-10.425606 85.055888,-5.8269546 82.943304,12.370205 81.065481,28.545423 108.7633,49.802609 70.737062,88.623165 34.119095,135.30017 34.118742,138.99735 30.363045,150.55115 c -5.633521,19.41013 -3.754649,76.71638 83.565005,68.39768 41.78195,-4.15922 69.47925,-25.87866 63.84577,-45.28893 -1.87784,-7.85647 -19.24657,-35.12496 -45.53639,-7.39589 -7.51135,7.85655 -18.31138,11.55539 -34.7425,13.40416 -10.797592,1.84852 -14.553175,-0.001 -12.675345,-7.85785 1.877846,-6.0079 12.675885,-21.25782 18.309405,-29.1145 38.02633,-44.828343 54.45904,-71.632535 54.45904,-93.353563 0,-19.410287 -18.3088,-48.5266312 -34.73985,-54.5345604 -4.72399,-1.8197127 -12.23483,-4.8776666 -19.50289,-5.0332586 z" />
</svg>
